<?xml version="1.0" encoding="UTF-8"?>
<svg id="_Слой_1" data-name="Слой_1" xmlns="http://www.w3.org/2000/svg" version="1.1" viewBox="0 0 300 200">
  <!-- Generator: Adobe Illustrator 29.2.1, SVG Export Plug-In . SVG Version: 2.1.0 Build 116)  -->
  <defs>
    <style>
      .st0 {
        fill: #36f;
      }

      .st1 {
        fill: #fff;
      }
    </style>
  </defs>
  <path class="st0" d="M128.6,63.7l-54.3-31.2c-1.8-1-4.1.4-4.1,2.5v56.8h-8.6c-1.5,0-2.7-1.1-2.9-2.6v-4.9c0-1.1.6-2.1,1.5-2.8,1.7-1.2,2.8-3.3,2.5-5.6-.3-3-2.9-5.5-6-5.5-3.4,0-6.2,2.7-6.2,6.1s1,3.8,2.5,5c1,.7,1.6,1.8,1.6,2.9v4.6c0,1.5-1.3,2.7-2.9,2.7h-17c-.5,0-.9.4-.9.9v1.3c0,.5.4.9.9.9h2.7c1.6,0,2.8,1.3,2.9,2.8v4.5c0,1.1-.6,2.2-1.6,2.8-1.7,1.2-2.8,3.3-2.6,5.6.3,3.1,2.9,5.5,6,5.6,3.4,0,6.2-2.7,6.2-6.1s-1-3.8-2.5-4.9c-.9-.7-1.5-1.7-1.5-2.9v-4.9c.2-1.4,1.4-2.5,2.9-2.5h11.9c1.6,0,2.9,1.3,2.9,2.9v39.1c0,2.4-2.5,4-4.7,2.9l-37.3-21.6c-2-1.2-3.2-3.3-3.2-5.6v-49.3c0-2.3,1.2-4.4,3.2-5.6l18.1-10.4,4.3-2.5c.9-.5,2.1-.7,3.1-.3,1.4.4,3.3,1,4.6,1,5.5,0,10-4.6,9.8-10.1-.1-5.1-4.4-9.4-9.5-9.5-1.1,0-2.2.1-3.3.5-1,.3-2,.8-2.8,1.4-.8.6-1.6,1.4-2.2,2.2-.6.9-1.1,1.8-1.4,2.9-.2.5-.3,1.1-.3,1.6,0,.3,0,.6,0,.8,0,.5,0,1-.3,1.4-.3.4-.8.5-1.1.7-.4.2-.8.5-1.2.7-.5.3-1,.6-1.5.9-.6.3-1.2.7-1.8,1-.7.4-1.3.8-2,1.1-.7.4-1.4.8-2.1,1.2-.7.4-1.5.9-2.2,1.3-.8.4-1.5.9-2.3,1.3-.8.4-1.5.9-2.3,1.3-.7.4-1.5.9-2.2,1.3l-2.1,1.2c-.6.4-1.3.7-1.9,1.1-.6.3-1.1.7-1.7,1-.5.3-1,.6-1.4.8-.4.2-.8.4-1.1.7-.3.1-.5.3-.8.4-.1,0-.2.1-.3.2-2,1.2-3.2,3.3-3.2,5.6v58.7c0,2.3,1.2,4.4,3.2,5.6l54.3,31.2c1.8,1,4.1-.4,4.1-2.5v-56.8h8.6c1.5,0,2.7,1.1,2.9,2.6v4.9c0,1.1-.6,2.1-1.5,2.8-1.7,1.2-2.8,3.3-2.5,5.6.3,3,2.9,5.5,6,5.5,3.4,0,6.2-2.7,6.2-6.1s-1-3.8-2.5-5c-1-.7-1.6-1.8-1.6-2.9v-4.6c0-1.5,1.3-2.7,2.9-2.7h17c.5,0,.9-.4.9-.9v-1.3c0-.5-.4-.9-.9-.9h-2.7c-1.6,0-2.8-1.3-2.9-2.8v-4.5c0-1.1.6-2.2,1.6-2.8,1.7-1.2,2.8-3.3,2.6-5.6-.3-3.1-2.9-5.5-6-5.6-3.4,0-6.2,2.7-6.2,6.1s1,3.8,2.5,4.9c.9.7,1.5,1.7,1.5,2.9v4.9c-.2,1.4-1.4,2.5-2.9,2.5h-11.9c-1.6,0-2.9-1.3-2.9-2.9v-39.1c0-2.4,2.5-4,4.7-2.9l37.3,21.6c2,1.2,3.2,3.3,3.2,5.6v49.3c0,2.3-1.2,4.4-3.2,5.6l-18.1,10.4-4.3,2.5c-.9.5-2.1.7-3.1.3-1.4-.4-3.3-1-4.6-1-5.5,0-10,4.6-9.8,10.1.1,5.1,4.4,9.4,9.5,9.5,1.1,0,2.2-.1,3.3-.5,1-.3,2-.8,2.8-1.4.8-.6,1.6-1.4,2.2-2.2.6-.9,1.1-1.8,1.4-2.9.2-.5.3-1.1.3-1.6,0-.3,0-.6,0-.8,0-.5,0-1,.3-1.4.3-.4.8-.5,1.1-.7.4-.2.8-.5,1.2-.7.5-.3,1-.6,1.5-.9.6-.3,1.2-.7,1.8-1,.7-.4,1.3-.8,2-1.1.7-.4,1.4-.8,2.1-1.2.7-.4,1.5-.9,2.2-1.3.8-.4,1.5-.9,2.3-1.3.8-.4,1.5-.9,2.3-1.3.7-.4,1.5-.9,2.2-1.3.7-.4,1.4-.8,2.1-1.2.6-.4,1.3-.7,1.9-1.1.6-.3,1.1-.7,1.7-1,.5-.3,1-.6,1.4-.8.4-.2.8-.4,1.1-.7l.8-.4c.1,0,.2-.1.3-.2,2-1.2,3.2-3.3,3.2-5.6v-58.7c0-2.3-1.2-4.4-3.2-5.6ZM46.5,110c0,2.3-1.9,4.1-4.1,4.1s-4.1-1.9-4.1-4.1,1.9-4.1,4.1-4.1,4.1,1.9,4.1,4.1ZM56.7,80.6c-2.3,0-4.1-1.9-4.1-4.1s1.9-4.1,4.1-4.1,4.1,1.9,4.1,4.1-1.9,4.1-4.1,4.1ZM50.3,28.9c3.7,0,6.6,3,6.6,6.6s-3,6.6-6.6,6.6-3.9-.9-5.1-2.4l-1-1.5c-.4-.8-.6-1.8-.6-2.7,0-3.7,3-6.6,6.6-6.6ZM65,151.7h0c0-.1,0-.1,0-.1h-.1ZM94,76.5c0-2.3,1.9-4.1,4.1-4.1s4.1,1.9,4.1,4.1-1.9,4.1-4.1,4.1-4.1-1.9-4.1-4.1ZM83.8,105.9c2.3,0,4.1,1.9,4.1,4.1s-1.9,4.1-4.1,4.1-4.1-1.9-4.1-4.1,1.9-4.1,4.1-4.1ZM75.5,34.9h0,.1c0-.1,0,0,0,0ZM90.2,157.6c-3.7,0-6.6-3-6.6-6.6s3-6.6,6.6-6.6,3.9.9,5.1,2.4l1,1.5c.4.8.6,1.8.6,2.7,0,3.7-3,6.6-6.6,6.6Z"/>
  <g>
    <path class="st1" d="M160.9,78.1c6.3-.3,13.6.7,18.9,4.2,1.4,0,.6,10.6.8,11.4-1.8.5-5.9,0-7.7,0-.6-.2-1-2.6-1.1-3.1-.2-.5-.4-3.2-1.3-3.3-3.7-.7-8.8-1.9-11.9.8-2,2.6-1,5,1.6,6.5,8.4,4.2,22.3,5.7,21.4,18.1-1.2,12.8-19.5,13.3-28.9,10.1-8.3-3.7-7-1.9-7-10.4.1-.2,0-4.7.3-4.7,0,0,8,0,8,0,.4,1.3.9,4.7,1.1,6,0,0,.8.7.8.7,3.8,1.8,11,3.4,14-.5,2.3-4.5-3.4-7.3-6.8-8.5-5.3-2-12-3.9-15.2-9-4.8-9.7,3.2-17.8,12.9-18.4Z"/>
    <path class="st1" d="M183.4,75.2h15.5c0,9,.2,32.1.3,40.8,0,.9,2.8,1.2,3.3,1.5.6.6.8,6.1.2,6.5-1.2,0-17.8,0-18.3-.2-.4-.3-.2-6.1,0-6.4.7-.2,2.9-.8,3.6-.8v-32l-.2-2.1c-6.3-.7-4.2-2.3-4.4-7.3Z"/>
    <path class="st1" d="M245.8,81.5h8l.2.3.2,8.3c.2.1,5.5-.5,5.5,0-.1.5.2,6.9-.2,7.3l-5.4.2c.3,2.1-.6,15.7.7,17.3,5.7,2.1,3.6-2.3,5.1,6,.5,2.7-1.8,3.2-3.9,3.8-3.5.4-7.5-1-10.1-3.3-4.4-4.4-2-18.4-2.6-24-.1,0-4.1.2-4.1-.2,0,0,0-7,0-7,0-.3,3.8-.4,3.9-.5l.2-8.2,2.6-.2Z"/>
    <path class="st1" d="M235.7,116.8c-.2-2.4.3-17.3-.8-19.2-2.2-6.5-10.1-8.4-16.3-8-3.5.3-7.7,1.6-10.9,3.1v9.5c1,0,6.5,0,7.3-.2.7-.8.7-2.8,1.1-3.8.9-1.4,3.4-1.1,4.9-1.1,3.2.1,3.8,4,3.6,6.5-5.4,0-12.3,0-16.3,4.1-4.7,5.4-2.8,13.5,3.9,16.1,3.7,1.9,7.4,1.1,10.6-1.3.4-.4,1.7-1.5,2.3-1.6.3.8.9,2.6,1.6,3.1,1.3.3,10.8,0,12.4,0l.2-.3s0-5.9,0-5.9c-.4-.7-2.8-.6-3.6-1ZM221.4,116.8c-1.5,0-3.8.1-4.6-1.5-.7-2.7,0-4.8,3.1-5.2.7.1,4.5-.4,4.7.7.2,3.6.8,4.9-3.3,6Z"/>
    <path class="st1" d="M276.5,89.5c-6.7.3-12.2,5.8-13.5,12.2-1.3,6.8-.5,15.4,5.9,19.6,6.5,4.8,16.1,3.7,22.7-.3.4-.8-1.8-5.8-2-6.7-.9,0-3.6,1.1-4.6,1.3-1.6.3-5.1.4-6.7.3-1.3-.6-2.9-1.5-3.6-2.8-.2-.5-1.1-2.1-.7-2.6,0,0,17.9-.2,17.9-.2.3,0,.3-1.4.3-1.5.9-11.5-2.9-20.1-15.8-19.4ZM282.5,103.4c-.2.2-9,.7-9-.2.3-2.2,1.3-5.2,3.8-5.7,4-.6,5.4,2.3,5.2,5.9Z"/>
  </g>
</svg>